<svg width="40" height="40" viewBox="0 0 44 44" fill="none" xmlns="http://www.w3.org/2000/svg">
<path fill-rule="evenodd" clip-rule="evenodd" d="M3.66669 22C3.66669 11.8747 11.8748 3.66663 22 3.66663C32.1252 3.66663 40.3334 11.8747 40.3334 22C40.3334 27.8442 37.5988 33.0497 33.3395 36.4068C32.5731 34.1936 31.1732 32.2465 29.3052 30.8131C27.2094 29.2049 24.6416 28.3333 22 28.3333C19.3584 28.3333 16.7906 29.2049 14.6949 30.8131C12.8268 32.2464 11.4269 34.1936 10.6606 36.4068C6.40122 33.0497 3.66669 27.8442 3.66669 22ZM28.0876 32.3998C29.7966 33.7111 31.0354 35.5384 31.6217 37.6086C28.8249 39.3363 25.5289 40.3333 22 40.3333C18.4712 40.3333 15.1752 39.3363 12.3784 37.6086C12.9646 35.5384 14.2034 33.7111 15.9124 32.3998C17.6589 31.0597 19.7987 30.3333 22 30.3333C24.2014 30.3333 26.3412 31.0597 28.0876 32.3998ZM17.5 16.5C17.5 14.0147 19.5147 12 22 12C24.4853 12 26.5 14.0147 26.5 16.5C26.5 18.9852 24.4853 21 22 21C19.5147 21 17.5 18.9852 17.5 16.5ZM22 9.99996C18.4102 9.99996 15.5 12.9101 15.5 16.5C15.5 20.0898 18.4102 23 22 23C25.5899 23 28.5 20.0898 28.5 16.5C28.5 12.9101 25.5899 9.99996 22 9.99996Z" fill="#858796"/>
<rect x="4.16669" y="4.16663" width="35.6667" height="35.6667" rx="17.8333" stroke="#858796"/>
</svg>
